<svg width="52" height="75" viewBox="0 0 52 75" fill="none" xmlns="http://www.w3.org/2000/svg">
<g clip-path="url(#clip0_1_85)">
<path d="M49.1199 30.6567C47.6234 27.111 45.3466 23.9574 42.4629 21.4361C39.5792 18.9147 36.1646 17.092 32.4791 16.1068L31.4649 15.8789C31.3051 17.2768 30.6426 18.5666 29.6037 19.5027C28.5648 20.4389 27.2219 20.9562 25.8304 20.9562C24.4389 20.9562 23.0959 20.4389 22.057 19.5027C21.018 18.5666 20.3557 17.2768 20.1958 15.8789L18.9186 16.1828C13.6995 17.6358 9.0906 20.7691 5.78974 25.1081C2.48888 29.4471 0.675792 34.7556 0.625 40.2299C0.625 53.7161 13.5094 64.9229 20.4587 71.0011L22.9004 73.2045C23.7109 73.9557 24.7685 74.3754 25.8679 74.3822C26.9578 74.3846 28.0069 73.963 28.7979 73.2045L31.2771 71.0011C38.2264 64.9609 51.0733 53.7161 51.0733 40.2299C51.0687 36.9381 50.4042 33.6814 49.1199 30.6567ZM36.0853 43.535C35.524 44.8625 34.7067 46.0636 33.6812 47.068C31.5794 49.1365 28.7631 50.2948 25.8304 50.2971C23.6289 50.3021 21.4742 49.655 19.6323 48.4356C18.2687 47.5523 17.1202 46.3687 16.2726 44.9732C15.425 43.5778 14.9003 42.0066 14.7377 40.3772C14.5752 38.7478 14.779 37.1023 15.3339 35.5638C15.8887 34.0252 16.7803 32.6334 17.9419 31.4924C19.5163 29.9521 21.5004 28.9092 23.6516 28.4913C25.8049 28.0428 28.0414 28.2545 30.075 29.0991C32.0944 29.9362 33.83 31.3483 35.071 33.164C36.2689 34.9739 36.9094 37.1023 36.9117 39.2802C36.9207 40.7401 36.6396 42.187 36.0853 43.535Z" fill="#FF8652"/>
<path d="M23.6502 13.295C23.2078 13.7251 22.9063 14.2819 22.7862 14.8905C22.6182 15.4735 22.6182 16.093 22.7862 16.676C23.0077 17.2519 23.4017 17.7434 23.9131 18.0816C24.4142 18.4152 25.0036 18.5874 25.6034 18.5755C26.2157 18.5928 26.8187 18.4205 27.3314 18.0816C27.8428 17.7434 28.2368 17.2519 28.4583 16.676C28.6263 16.093 28.6263 15.4735 28.4583 14.8905C28.3382 14.2819 28.0367 13.7251 27.5944 13.295C27.3149 13.0156 26.9828 12.796 26.6177 12.6491C26.243 12.467 25.8314 12.3759 25.4157 12.3832C25.0268 12.3991 24.6444 12.4893 24.2887 12.6491C23.9187 12.8081 23.5762 13.0262 23.2745 13.295H23.6502Z" fill="#35A778"/>
<path d="M25.8674 6.19141C24.5173 6.19355 23.1795 6.45125 21.9232 6.95119C20.6834 7.43539 19.5481 8.15782 18.58 9.07859C18.3571 9.23348 18.1763 9.44248 18.0541 9.68641C17.9982 9.92369 17.9982 10.1709 18.0541 10.4082C17.982 10.6691 17.982 10.9451 18.0541 11.206C18.142 11.4595 18.2981 11.6831 18.5048 11.8518C18.6914 12.047 18.9242 12.1908 19.181 12.2697C19.4513 12.3458 19.7371 12.3458 20.0074 12.2697C20.2678 12.3219 20.5358 12.3219 20.7962 12.2697C21.0329 12.1391 21.2483 11.9726 21.4349 11.7758C22.024 11.1913 22.7278 10.7383 23.5008 10.4462C24.2787 10.1388 25.1074 9.98404 25.9425 9.99032C26.7771 9.99028 27.6046 10.1448 28.3841 10.4462C29.1483 10.7562 29.8488 11.2071 30.4502 11.7758C30.6229 11.9783 30.8422 12.1349 31.0887 12.2317C31.323 12.3862 31.598 12.4656 31.8776 12.4596C32.1393 12.4965 32.4047 12.4965 32.6664 12.4596C32.9095 12.3519 33.137 12.2113 33.3426 12.0417C33.5586 11.8659 33.716 11.6272 33.7934 11.3579C33.8497 11.1079 33.8497 10.8482 33.7934 10.5981C33.7585 10.3465 33.6824 10.1026 33.568 9.87636C33.4457 9.63242 33.2649 9.42343 33.0421 9.26853C32.0874 8.34885 30.9646 7.62623 29.7364 7.14113C28.5148 6.58851 27.2036 6.26663 25.8674 6.19141Z" fill="#35A778"/>
<path d="M25.8682 4.25144e-05C23.8277 -0.00195657 21.8039 0.371334 19.8956 1.10172C18.0204 1.84796 16.3003 2.94326 14.8244 4.3308C14.6333 4.49391 14.4685 4.68616 14.3361 4.90063C14.3026 5.12731 14.3026 5.35776 14.3361 5.58444C14.2968 5.8234 14.2968 6.06728 14.3361 6.30624C14.4295 6.53627 14.5703 6.7435 14.7493 6.91406C14.938 7.08781 15.1538 7.22898 15.3879 7.33195H16.1392C16.398 7.30945 16.6516 7.24532 16.8904 7.14199C17.13 7.03331 17.3372 6.86304 17.4915 6.64814C19.8023 4.51789 22.8165 3.33708 25.9433 3.33708C29.0702 3.33708 32.0843 4.51789 34.3952 6.64814C34.5263 6.86042 34.725 7.0212 34.9586 7.10401C35.189 7.23599 35.4457 7.3139 35.7099 7.33195C35.9575 7.3853 36.2136 7.3853 36.4612 7.33195C36.7009 7.25837 36.9198 7.12814 37.0998 6.95205C37.2787 6.78148 37.4196 6.57425 37.513 6.34422C37.5522 6.10526 37.5522 5.8614 37.513 5.62243C37.5631 5.39731 37.5631 5.16375 37.513 4.93863C37.3922 4.71569 37.2257 4.52141 37.0246 4.36878C35.5549 2.97316 33.8332 1.87685 31.9535 1.13971C30.0124 0.381785 27.9489 -0.0046661 25.8682 4.25144e-05Z" fill="#35A778"/>
</g>
<defs>
<clipPath id="clip0_1_85">
<rect width="50.4482" height="74.3447" fill="white" transform="translate(0.587891)"/>
</clipPath>
</defs>
</svg>
