<svg xmlns="http://www.w3.org/2000/svg" viewBox="0 0 165.18 240.76"><defs><style>.cls-1{fill:#ef8255;}.cls-2{fill:#35a678;}</style></defs><g id="Layer_2" data-name="Layer 2"><g id="Layer_1-2" data-name="Layer 1"><path class="cls-1" d="M159,99.25A80,80,0,0,0,141,73c-10.19-10-22.74-17.54-36.63-20.86l-3.32-.81a18.5,18.5,0,0,1-37,0q-2,.47-4.17,1c-17.27,4.35-32.31,15-43.23,29.09A79.86,79.86,0,0,0,0,130.23c0,43.72,42.2,80,64.88,99.67,3.18,2.74,5.69,5.08,8,7.08a14.3,14.3,0,0,0,19.37,0l8.09-7.08c22.78-19.55,64.82-56,64.82-99.67A78.43,78.43,0,0,0,159,99.25ZM116.2,140.88a35.06,35.06,0,0,1-7.87,11.52,36.71,36.71,0,0,1-25.68,10.46,37.24,37.24,0,0,1-20.28-6,35.82,35.82,0,0,1-13.39-16,35.13,35.13,0,0,1-2.1-20.63,35.61,35.61,0,0,1,10-18.28,36.9,36.9,0,0,1,39.7-7.72,36,36,0,0,1,16.34,13.15,35.14,35.14,0,0,1,3.31,33.51Z"/><path class="cls-2" d="M75.45,43.05a9.67,9.67,0,0,0-2.74,5.12A10,10,0,0,0,73.26,54,10.21,10.21,0,0,0,77,58.47a10.09,10.09,0,0,0,5.59,1.69,10.24,10.24,0,0,0,5.63-1.69A10,10,0,0,0,91.89,54a9.86,9.86,0,0,0-2.18-10.93,9.19,9.19,0,0,0-3.26-2.17,9.76,9.76,0,0,0-7.6,0,9.68,9.68,0,0,0-3.29,2.17Z"/><path class="cls-2" d="M82.59,20.05a35.89,35.89,0,0,0-12.87,2.41,33.11,33.11,0,0,0-10.93,6.88,6.09,6.09,0,0,0-1.72,2,5.77,5.77,0,0,0-.68,2.4,5.44,5.44,0,0,0,.4,2.52,6.06,6.06,0,0,0,1.44,2.11,7.39,7.39,0,0,0,2.28,1.39,7.2,7.2,0,0,0,2.64.38,7.46,7.46,0,0,0,2.6-.68,5.94,5.94,0,0,0,2.08-1.62,21.09,21.09,0,0,1,6.76-4.25,22.49,22.49,0,0,1,8-1.5,22,22,0,0,1,8,1.5,21.28,21.28,0,0,1,6.8,4.25,5.9,5.9,0,0,0,2.08,1.58,6.13,6.13,0,0,0,2.56.68,6.75,6.75,0,0,0,2.64-.38,6.4,6.4,0,0,0,2.24-1.39,6,6,0,0,0,1.48-2.11,5.83,5.83,0,0,0,.4-2.48,5.62,5.62,0,0,0-.68-2.4,6.18,6.18,0,0,0-1.68-2,33.07,33.07,0,0,0-10.92-6.88A35.77,35.77,0,0,0,82.59,20.05Z"/><path class="cls-2" d="M82.59,0A54.15,54.15,0,0,0,63.05,3.51,50.85,50.85,0,0,0,46.53,14a5.82,5.82,0,0,0-1.6,1.79,5.73,5.73,0,0,0-.64,2.28,5.26,5.26,0,0,0,.37,2.35,5.69,5.69,0,0,0,1.35,2,6,6,0,0,0,2.12,1.26,6.48,6.48,0,0,0,2.46.39A7.21,7.21,0,0,0,53,23.43,6.27,6.27,0,0,0,55,21.92a41,41,0,0,1,55.3,0,5.32,5.32,0,0,0,1.94,1.47,5.66,5.66,0,0,0,2.39.63,6.41,6.41,0,0,0,2.46-.38,6.09,6.09,0,0,0,2.09-1.26,5.72,5.72,0,0,0,1.38-2A5.45,5.45,0,0,0,118.69,14,51,51,0,0,0,102.13,3.51,53.65,53.65,0,0,0,82.59,0Z"/></g></g></svg>